<?xml version="1.0" standalone="no"?><!DOCTYPE svg PUBLIC "-//W3C//DTD SVG 1.1//EN" "http://www.w3.org/Graphics/SVG/1.1/DTD/svg11.dtd"><svg t="1765447067417" class="icon" viewBox="0 0 1024 1024" version="1.1" xmlns="http://www.w3.org/2000/svg" p-id="6839" width="500" height="500" xmlns:xlink="http://www.w3.org/1999/xlink"><path d="M510.777 513.223m-418.146 0a418.146 418.146 0 1 0 836.292 0 418.146 418.146 0 1 0-836.292 0Z" fill="#FFD7D7" p-id="6840"></path><path d="M139.583 585.633c-10.93-9.834-10.301-27.153 1.313-36.17 87.153-67.663 364.205-229.116 462.03-289.358 8.27-5.093 19.395-6.208 26.999-0.166 33.609 26.703 179.658 153.53 238.863 204.72 10.662 9.219-0.5 48.83-10.877 58.37l-480.646 335.49c-8.955 8.232-22.7 8.306-31.743 0.17L139.583 585.633z" fill="#F456BF" p-id="6841"></path><path d="M361.3 869.743a28.543 28.543 0 0 1-19.121-7.336 5.094 5.094 0 0 1-0.647-0.706L135.867 589.01a28.513 28.513 0 0 1-9.078-21.949 28.524 28.524 0 0 1 11.04-21.547c66.501-51.629 239.822-155.66 366.376-231.62 38.997-23.407 72.677-43.622 96.1-58.046 5.251-3.234 11.354-5.015 17.186-5.015 5.896 0 11.271 1.795 15.546 5.192C662.006 279.041 775 376.86 842.512 435.306a60627.034 60627.034 0 0 0 29.549 25.571c3.891 3.364 5.924 9.095 6.045 17.036 0.253 16.595-8.072 40.765-16.809 48.797a4.885 4.885 0 0 1-0.522 0.419L380.39 862.436a28.519 28.519 0 0 1-19.09 7.307z m-12.092-14.472a18.556 18.556 0 0 0 12.092 4.471c4.674 0 9.142-1.742 12.582-4.904 0.164-0.151 0.339-0.292 0.522-0.419l480.344-335.278c6.08-5.918 13.578-26.622 13.357-41.075-0.103-6.756-1.843-8.98-2.587-9.624-8.32-7.194-18.355-15.882-29.553-25.575-67.452-58.394-180.347-156.128-209.15-179.013-3.143-2.497-6.806-3.021-9.325-3.021-4.005 0-8.246 1.253-11.941 3.53-23.472 14.454-57.174 34.683-96.197 58.105-126.337 75.83-299.362 179.683-365.39 230.944-4.362 3.387-6.979 8.494-7.18 14.011s2.04 10.799 6.146 14.493c0.237 0.214 0.454 0.451 0.647 0.706l205.633 272.649z" fill="#280D0D" p-id="6842"></path><path d="M149.583 555.633c-10.93-9.834-10.301-27.153 1.313-36.17 87.153-67.663 364.205-229.116 462.031-289.358 8.27-5.093 19.395-6.208 26.999-0.166 33.609 26.703 164.722 177.606 223.927 228.797 10.662 9.219 10.904 25.662 0.527 35.202l-477.898 336.36c-8.955 8.232-22.701 8.306-31.743 0.17L149.583 555.633z" fill="#FF76C4" p-id="6843"></path><path d="M370.516 841.522a28.543 28.543 0 0 1-19.121-7.336 4.968 4.968 0 0 1-0.663-0.727L145.857 559a28.513 28.513 0 0 1-9.068-21.939 28.523 28.523 0 0 1 11.041-21.548c66.5-51.629 239.822-155.66 366.377-231.621 38.997-23.407 72.675-43.621 96.098-58.045 5.252-3.234 11.355-5.015 17.186-5.015 5.896 0 11.271 1.795 15.546 5.191 15.951 12.674 52.075 51.327 93.903 96.083 46.296 49.537 98.77 105.684 130.185 132.846a28.601 28.601 0 0 1 9.882 21.178 28.625 28.625 0 0 1-9.242 21.487 4.853 4.853 0 0 1-0.506 0.408L389.613 834.208a28.513 28.513 0 0 1-19.097 7.314z m-12.084-14.464a18.56 18.56 0 0 0 12.084 4.464c4.674 0 9.142-1.742 12.582-4.904 0.159-0.147 0.328-0.283 0.506-0.408L861.22 490.048a18.613 18.613 0 0 0 5.787-13.764 18.587 18.587 0 0 0-6.424-13.766c-31.817-27.51-84.483-83.863-130.949-133.583-39.828-42.616-77.446-82.868-92.818-95.082-3.143-2.497-6.806-3.021-9.325-3.021-4.004 0-8.245 1.253-11.941 3.529-23.472 14.454-57.173 34.682-96.195 58.104C393.016 368.297 219.99 472.15 153.963 523.412a18.549 18.549 0 0 0-7.181 14.011 18.543 18.543 0 0 0 6.146 14.493c0.244 0.22 0.466 0.463 0.662 0.726l204.842 274.416z" fill="#280D0D" p-id="6844"></path><path d="M82.321 560.288c-11.669-8.945-11.753-45.754 0-54.588 88.471-66.498 341.496-193.91 434.288-261.648 7.845-5.727 18.214-6.626 26.903-2.286 58.338 29.144 231.313 106.235 294.356 152.618 11.353 8.353 12.885 54.727 3.29 65.052l-383.215 389.41c-8.28 8.91-21.978 10.063-31.632 2.663L82.321 560.288z" fill="#3BFFDE" p-id="6845"></path><path d="M440.654 861.315c-6.324 0-12.322-2.036-17.347-5.888a5.114 5.114 0 0 1-0.187-0.15L79.213 564.125c-7.902-6.164-10.665-20.336-10.611-31.579 0.025-5.347 0.876-23.371 10.754-30.794 45.335-34.076 134.624-84.616 220.975-133.492 82.637-46.775 168.088-95.142 213.368-128.197 5.343-3.9 11.656-5.962 18.256-5.962 4.753 0 9.512 1.123 13.765 3.248 13.4 6.695 33.034 16.005 55.768 26.787 75.825 35.958 190.413 90.298 239.307 126.272 7.768 5.714 10.299 21.144 11.116 29.832 1.484 15.765-0.146 35.038-7.136 42.557a3.124 3.124 0 0 1-0.098 0.102l-383.166 389.36a28.628 28.628 0 0 1-20.857 9.056z m-11.25-13.656a18.481 18.481 0 0 0 11.25 3.782c5.171 0 10.154-2.17 13.672-5.955 0.032-0.035 0.064-0.068 0.098-0.102L837.58 456.033c3.398-3.744 6.078-18.09 4.499-34.868-1.227-13.027-4.469-20.84-7.138-22.803-48.13-35.412-162.202-89.507-237.686-125.304-22.783-10.804-42.459-20.135-55.95-26.875a21.04 21.04 0 0 0-9.352-2.206 20.958 20.958 0 0 0-12.434 4.063c-45.742 33.391-131.445 81.901-214.327 128.814-86.075 48.721-175.082 99.101-219.905 132.792-3.961 2.977-6.763 12.413-6.812 22.948-0.052 10.867 2.765 20.644 6.85 23.776 0.063 0.048 0.125 0.098 0.187 0.15l343.892 291.139z" fill="#280D0D" p-id="6846"></path><path d="M89.195 535.789c-11.669-8.946-13.285-27.327-1.532-36.161 88.471-66.498 336.153-217.838 428.945-285.576 7.845-5.727 18.214-6.626 26.903-2.286 58.338 29.144 231.313 136.236 294.356 182.619 11.353 8.353 12.885 24.727 3.29 35.052l-383.215 389.41c-8.28 8.91-21.978 10.063-31.632 2.663L89.195 535.789z" fill="#3BFFDE" p-id="6847"></path><path d="M440.654 831.314c-6.324 0-12.322-2.036-17.347-5.888a5.427 5.427 0 0 1-0.188-0.152L86.09 539.629c-7.196-5.568-11.464-14.331-11.42-23.465 0.039-8.257 3.694-15.723 10.027-20.483 46.372-34.854 136.973-93.348 224.59-149.916 82.396-53.197 160.223-103.443 204.411-135.701 5.343-3.9 11.655-5.961 18.255-5.961 4.753 0 9.513 1.123 13.765 3.248 59.273 29.611 233.01 137.394 295.075 183.059a28.532 28.532 0 0 1 11.489 20.292 28.556 28.556 0 0 1-7.607 22.199L461.51 822.261a28.629 28.629 0 0 1-20.856 9.053z m-11.249-13.655a18.484 18.484 0 0 0 11.249 3.781 18.72 18.72 0 0 0 13.672-5.955c0.032-0.035 0.064-0.068 0.098-0.102l383.162-389.356a18.678 18.678 0 0 0 4.866-14.402 18.652 18.652 0 0 0-7.511-13.264c-61.785-45.458-234.674-152.723-293.636-182.179a21.042 21.042 0 0 0-9.353-2.207 20.958 20.958 0 0 0-12.433 4.063c-44.417 32.424-122.359 82.746-204.878 136.021-87.472 56.474-177.922 114.87-224.013 149.514-3.899 2.931-6.062 7.419-6.086 12.637-0.029 6.108 2.833 11.962 7.655 15.66 0.063 0.049 0.127 0.1 0.188 0.152l337.02 285.637z" fill="#280D0D" p-id="6848"></path><path d="M861.297 526.71a4.885 4.885 0 0 1-0.522 0.419L607.487 703.923 461.511 852.259a28.628 28.628 0 0 1-20.857 9.056c-6.324 0-12.322-2.036-17.347-5.888a5.114 5.114 0 0 1-0.187-0.15l-14.675-12.424-28.055 19.583a28.519 28.519 0 0 1-19.09 7.307 28.543 28.543 0 0 1-19.121-7.336 5.094 5.094 0 0 1-0.647-0.706L184.017 652.852 79.213 564.125c-7.902-6.164-10.665-20.336-10.611-31.579 0.007-1.568 0.088-4.228 0.444-7.388-4.289 15.015-8.384 40.753 4.492 62.596 19.538 33.147 94.994 85.039 94.994 85.039l147.423 217.661s23.778 29.794 54.422 21.647c30.644-8.148 42.643-26.147 42.643-26.147s20.867 11.956 39.649 10.374C482.035 893.855 605.236 733.28 635.009 713c33.978-23.145 219.442-157.033 235.027-199.087 0.272-0.735 0.492-1.48 0.67-2.234-2.769 6.491-6.058 11.95-9.409 15.031z" fill="#280D0D" p-id="6849"></path><path d="M112.543 555.577l468.931-323.225 73.489 43.41-472.392 339.167z" fill="#4C3022" p-id="6850"></path><path d="M182.367 620l-76.397-64.75 475.339-327.641 80.967 47.827L182.367 620z m-63.251-64.095l63.659 53.953 464.875-333.77-66.01-38.992-462.524 318.809z" fill="#280D0D" p-id="6851"></path><path d="M360.875 866.569a4.935 4.935 0 0 1-4.859-5.84l4.666-25.109a4.936 4.936 0 0 1 5.756-3.952 4.935 4.935 0 0 1 3.951 5.756l-4.666 25.109a4.939 4.939 0 0 1-4.848 4.036z" fill="#280D0D" p-id="6852"></path><path d="M443.13 861.18a4.936 4.936 0 0 1-4.927-5.322l2.333-29.865a4.929 4.929 0 0 1 5.307-4.538 4.936 4.936 0 0 1 4.537 5.306l-2.333 29.865a4.937 4.937 0 0 1-4.917 4.554z" fill="#280D0D" p-id="6853"></path><path d="M285.262 606.742L436.153 730.8a10.684 10.684 0 0 0 13.788-0.184l113.168-98.21c5.271-4.574 4.813-12.89-0.927-16.858L408.614 509.384a10.685 10.685 0 0 0-12.358 0.146l-110.49 80.316c-5.656 4.111-5.904 12.456-0.504 16.896z" fill="#FFD96E" p-id="6854"></path><path d="M442.939 738.231h-0.002a15.718 15.718 0 0 1-9.96-3.57l-150.89-124.057c-3.778-3.106-5.862-7.692-5.717-12.582s2.498-9.344 6.456-12.221l110.49-80.316a15.584 15.584 0 0 1 9.222-2.998c3.202 0 6.286 0.962 8.92 2.783l153.568 106.164a15.579 15.579 0 0 1 6.741 12.041 15.578 15.578 0 0 1-5.38 12.707l-113.169 98.209a15.673 15.673 0 0 1-10.279 3.84z m-40.401-225.743a5.646 5.646 0 0 0-3.342 1.086L288.705 593.89a5.647 5.647 0 0 0-2.34 4.429 5.647 5.647 0 0 0 2.072 4.559l150.892 124.058a5.702 5.702 0 0 0 3.609 1.294h0.001a5.685 5.685 0 0 0 3.725-1.391l113.169-98.21a5.645 5.645 0 0 0 1.95-4.605 5.649 5.649 0 0 0-2.444-4.364L405.771 513.497a5.662 5.662 0 0 0-3.233-1.009z" fill="#280D0D" p-id="6855"></path><path d="M472.771 528.182a4.998 4.998 0 0 1-3.164-8.873l216.686-176.86a4.996 4.996 0 0 1 7.034 0.712 4.998 4.998 0 0 1-0.712 7.035L475.93 527.055a4.978 4.978 0 0 1-3.159 1.127zM493.481 542.376a5 5 0 0 1-3.165-8.873l216.686-176.86a4.998 4.998 0 0 1 7.034 0.712 4.998 4.998 0 0 1-0.712 7.035L496.64 541.25a4.977 4.977 0 0 1-3.159 1.126zM513.665 559.046a5 5 0 0 1-3.164-8.873l216.685-176.859a4.997 4.997 0 0 1 7.034 0.712 4.998 4.998 0 0 1-0.712 7.035L516.823 557.919a4.975 4.975 0 0 1-3.158 1.127zM534.196 574.709a5 5 0 0 1-3.165-8.873l216.686-176.86a4.998 4.998 0 0 1 7.034 0.712 4.998 4.998 0 0 1-0.712 7.035l-216.685 176.86a4.972 4.972 0 0 1-3.158 1.126zM560.646 591.902a4.998 4.998 0 0 1-3.164-8.873l216.686-176.86a4.996 4.996 0 0 1 7.034 0.712 4.998 4.998 0 0 1-0.712 7.035l-216.686 176.86a4.972 4.972 0 0 1-3.158 1.126z" fill="#00C49E" p-id="6856"></path><path d="M440.285 537.376s-52.588-7.47-37.669 24.255c14.919 31.724 21.081 59.774 0 61.749s-74.581 12.616-54.581 29.475c17.341 14.617 76.027 61.959 91.327 74.291a5.556 5.556 0 0 0 7.194-0.189l113.187-98.743c2.808-2.45 2.553-6.89-0.517-9.002l-118.941-81.836z" fill="#FFC866" p-id="6857"></path><path d="M328.441 827.855a348.761 348.761 0 0 0 50.445-10.716c1.854-0.539 1.064-3.435-0.798-2.893a348.895 348.895 0 0 1-50.445 10.716c-1.909 0.26-1.093 3.15 0.798 2.893z m-9.407-7.524a275.357 275.357 0 0 0 31.905-4.006c1.901-0.352 1.093-3.243-0.798-2.893a268.22 268.22 0 0 1-31.107 3.899c-1.92 0.127-1.932 3.128 0 3z m-8.53-6.214l47.037-6.222c1.889-0.25 1.914-3.253 0-3l-47.037 6.222c-1.889 0.25-1.914 3.253 0 3z m-1.971-9.281a273.033 273.033 0 0 1 30.503-1.897c1.934-0.012 1.935-3.012 0-3a273.286 273.286 0 0 0-30.503 1.897c-1.897 0.225-1.919 3.228 0 3z m-7.034-7.782l46.044-5.638c1.895-0.232 1.917-3.235 0-3l-46.044 5.638c-1.895 0.232-1.918 3.234 0 3z m-3.463-9.149a283.165 283.165 0 0 0 42.907-4.055c1.904-0.327 1.094-3.217-0.798-2.893a277.815 277.815 0 0 1-42.109 3.947c-1.932 0.035-1.935 3.035 0 3.001z m-8.502-10.587l30.51-1.258c1.927-0.079 1.935-3.08 0-3l-30.51 1.258c-1.927 0.079-1.935 3.08 0 3z m-5.103-6.034a121.318 121.318 0 0 1 19.605-1.932c1.932-0.035 1.936-3.035 0-3a126.38 126.38 0 0 0-20.402 2.039c-1.902 0.346-1.094 3.237 0.797 2.893z m-32.436-40.243a592.537 592.537 0 0 1 42.048-3.777c1.924-0.104 1.934-3.104 0-3a592.484 592.484 0 0 0-42.048 3.777c-1.892 0.239-1.916 3.242 0 3z m-3.957-5.373c6.16-0.262 12.282-0.824 18.392-1.65 1.91-0.258 1.093-3.149-0.798-2.893a191.543 191.543 0 0 1-17.594 1.543c-1.927 0.082-1.935 3.083 0 3z m-3.391-7.845a1116.223 1116.223 0 0 1 48.651-6.861c1.897-0.225 1.919-3.228 0-3a1135.51 1135.51 0 0 0-49.449 6.968c-1.906 0.311-1.094 3.202 0.798 2.893z m-14.031-7.607a882.2 882.2 0 0 1 50.924-7.992c1.892-0.24 1.916-3.243 0-3a896.428 896.428 0 0 0-51.721 8.099c-1.9 0.355-1.093 3.246 0.797 2.893z m-17.082-15.379l31.353-3.133c1.906-0.19 1.925-3.192 0-3l-31.353 3.133c-1.907 0.19-1.925 3.192 0 3z m-0.657-15.201a296.281 296.281 0 0 0 33.016-4.38c1.899-0.361 1.093-3.253-0.798-2.893a288.932 288.932 0 0 1-32.218 4.273c-1.916 0.145-1.931 3.147 0 3z m-13.992-16.606l23.981-2.21c1.91-0.176 1.927-3.178 0-3l-23.981 2.21c-1.91 0.176-1.927 3.178 0 3zM82.202 558.867c7.956 0.124 15.841-0.382 23.723-1.462 1.909-0.262 1.093-3.152-0.798-2.893-7.611 1.044-15.246 1.475-22.926 1.355-1.935-0.031-1.932 2.969 0.001 3z m9.333 5.322h12c1.935 0 1.935-3 0-3h-12c-1.934 0-1.934 3 0 3z m5.998 6.635l11.325-0.785c1.919-0.133 1.932-3.134 0-3l-11.325 0.785c-1.919 0.134-1.931 3.134 0 3z m10.006 6.746l10.658-0.787c1.917-0.142 1.931-3.143 0-3l-10.658 0.787c-1.917 0.142-1.931 3.143 0 3z m6.662 7.909l21.996-0.772c1.929-0.068 1.936-3.068 0-3l-21.996 0.772c-1.929 0.068-1.936 3.068 0 3z m12.676 10.186l12.661-0.762c1.922-0.116 1.933-3.116 0-3l-12.661 0.762c-1.922 0.116-1.933 3.116 0 3z m11.724 7.804a272.56 272.56 0 0 1 26.27-3.255c1.917-0.144 1.931-3.145 0-3a280.76 280.76 0 0 0-27.067 3.362c-1.904 0.33-1.095 3.221 0.797 2.893z m5.601 6.72h6.667c1.935 0 1.935-3 0-3h-6.667c-1.934 0-1.934 3 0 3z m5.313 7.126a262.277 262.277 0 0 1 33.353-1.091c1.936 0.06 1.93-2.94 0-3a262.277 262.277 0 0 0-33.353 1.091c-1.908 0.185-1.926 3.186 0 3z m14.681 8.773l30.681-1.751c1.923-0.11 1.934-3.11 0-3l-30.681 1.751c-1.923 0.11-1.933 3.111 0 3z m11.35 9.59l22.65-1.567c1.919-0.133 1.932-3.134 0-3l-22.65 1.567c-1.919 0.133-1.932 3.134 0 3z m12.332 12.294a217.872 217.872 0 0 1 29.411-7.717c1.9-0.359 1.093-3.25-0.798-2.893a217.981 217.981 0 0 0-29.411 7.717c-1.821 0.617-1.04 3.515 0.798 2.893z m11.346 9.356a156.315 156.315 0 0 1 22.723-5.103c1.908-0.282 1.094-3.172-0.798-2.893a156.184 156.184 0 0 0-22.723 5.103c-1.845 0.562-1.058 3.458 0.798 2.893zM78.535 552.865c2.684 0.083 5.33-0.283 7.889-1.094 1.837-0.582 1.052-3.479-0.798-2.893a21.025 21.025 0 0 1-7.092 0.987c-1.935-0.06-1.929 2.94 0.001 3z m15-0.51c1.935 0 1.935-3 0-3-1.934 0-1.934 3 0 3z m61.5 56c1.935 0 1.935-3 0-3-1.934 0-1.934 3 0 3z m64 60h1c1.935 0 1.935-3 0-3h-1c-1.934 0-1.934 3 0 3z m80.5 60c1.935 0 1.935-3 0-3s-1.934 3 0 3z m43.51 73.579l4.496-0.531c0.812-0.096 1.5-0.61 1.5-1.5 0-0.745-0.686-1.596-1.5-1.5l-4.496 0.531c-0.812 0.096-1.5 0.61-1.5 1.5 0 0.745 0.686 1.596 1.5 1.5z m13.354 14.776c2.312-0.87 4.689-1.458 7.15-1.691 1.909-0.181 1.926-3.182 0-3-2.734 0.259-5.376 0.831-7.948 1.799-1.793 0.674-1.016 3.575 0.798 2.892z m-24.505 21.407l8.526-1.88c1.889-0.417 1.088-3.309-0.798-2.893l-8.526 1.88c-1.889 0.417-1.088 3.309 0.798 2.893z m12.563-3.178l9.487-1.576c1.905-0.316 1.094-3.207-0.798-2.893l-9.487 1.576c-1.905 0.317-1.094 3.208 0.798 2.893z m-2.008 12.928l9.955-2.204c1.889-0.418 1.088-3.31-0.798-2.893l-9.955 2.204c-1.888 0.419-1.087 3.311 0.798 2.893z m-71.023-92.095c1.856-0.456 3.705-0.57 5.607-0.396 1.927 0.177 1.91-2.825 0-3a19.315 19.315 0 0 0-6.404 0.503c-1.878 0.461-1.081 3.354 0.797 2.893z m10.109-0.917h3c1.935 0 1.935-3 0-3h-3c-1.934 0-1.934 3 0 3z m-30.5-63.5h4c1.935 0 1.935-3 0-3h-4c-1.934 0-1.934 3 0 3z" fill="#280D0D" p-id="6858"></path><path d="M303.386 456.858c6.449 0 6.449-10 0-10s-6.449 10 0 10z" fill="#FFFFFF" p-id="6859"></path><path d="M287.364 460.06c-20.641 14.618-40.718 29.956-61.212 44.768-5.173 3.739-0.19 12.42 5.047 8.635 20.494-14.813 40.57-30.151 61.212-44.768 5.216-3.694 0.228-12.371-5.047-8.635z" fill="#FFFFFF" p-id="6860"></path><path d="M442 489l15 9.473 107-88.43-13.667-7.71z" fill="#4C3022" p-id="6861"></path></svg>