<?xml version="1.0" standalone="no"?><!DOCTYPE svg PUBLIC "-//W3C//DTD SVG 1.1//EN" "http://www.w3.org/Graphics/SVG/1.1/DTD/svg11.dtd"><svg t="1756697106043" class="icon" viewBox="0 0 1024 1024" version="1.1" xmlns="http://www.w3.org/2000/svg" p-id="25635" width="310" height="310" xmlns:xlink="http://www.w3.org/1999/xlink"><path d="M794.7 495.2c-5.9-6.2-14-9.7-22.6-9.9-17.6 0-31.8 14.2-31.8 31.8v81.7c-162.2 16.3-285.8 152.7-286.1 315.8h-0.2c0 14.2 1.1 28.4 3 42.4 54-108.5 162.4-179.3 283.4-185v63.1c0 17.6 14.2 31.8 31.8 31.8 8.5-0.1 16.7-3.7 22.6-9.9l153-158.9c11.8-12.3 11.8-31.7 0-44L794.7 495.2z m-22.5 339.4v-95.4l-31.8 0.5v0.5c-93.6 3.9-182.2 43.7-247.1 111.3 27.1-118.9 126-208 247.1-222.5v0.3h31.8V518l153 157.7-153 158.9zM178.3 456.4c0 13.2 10.7 23.8 23.8 23.8h286.1c13.2 0 23.8-10.7 23.8-23.8 0-13.2-10.7-23.8-23.8-23.8H202.1c-13.2-0.1-23.8 10.6-23.8 23.8zM202.1 655h286.1c13.2 0 23.8-10.7 23.8-23.8 0-13.2-10.7-23.8-23.8-23.8H202.1c-13.2 0-23.8 10.7-23.8 23.8 0 13.2 10.6 23.8 23.8 23.8z" fill="#F87500" p-id="25636"></path><path d="M893.4 67H130.6C95.5 67 67 95.5 67 130.6v762.9c0 35.1 28.5 63.6 63.6 63.6h262.2c13.2 0 23.8-10.7 23.8-23.8 0-13.2-10.7-23.8-23.8-23.8H130.6c-8.8 0-15.9-7.1-15.9-15.9v-763c0-8.8 7.1-15.9 15.9-15.9h762.9c8.8 0 15.9 7.1 15.9 15.9v294c0 13.2 10.7 23.8 23.8 23.8 13.2 0 23.8-10.7 23.8-23.8v-294c0-35.1-28.5-63.6-63.6-63.6z" fill="#F87500" p-id="25637"></path><path d="M631 346.4c0 3.3 1.3 6.4 3.7 8.7 2.5 2.4 5.7 3.6 8.9 3.6 3.3 0 6.5-1.2 9-3.7l84.5-68.9c2.3-2.3 3.5-5.6 3.3-9.3 0.2-3.6-1.1-6.9-3.6-9.4l-84.1-68.7c-4.9-4.8-13.2-4.9-18.1-0.2-2.4 2.3-3.7 5.4-3.7 8.7 0 3.3 1.3 6.4 3.8 8.9l74.4 60.7-74.7 61c-2.2 2.2-3.4 5.3-3.4 8.6zM491.9 402c2.9 0.9 5.4 1.3 7.6 1.3 4.4 0 7.3-1.7 9.6-5.3l0.1-0.2L579.7 161l0.1-0.2c1.4-4.1 2.4-14.5-6-17.3-12.3-4.1-15.7 5.2-15.7 5.2l-70.4 236.4-0.1 0.2c-2 3.4-2.4 8.2-1 11.7 0.8 1.8 2.4 4.1 5.3 5zM430.6 207.3c0-3.3-1.3-6.4-3.7-8.7-2.4-2.3-5.5-3.6-8.9-3.6-3.4 0-6.5 1.3-8.8 3.5l-84.6 69.1c-2.3 2.3-3.5 5.6-3.3 9.3-0.2 3.6 1.1 6.9 3.6 9.4l84.1 68.6c2.6 2.6 5.9 3.8 9.2 3.8 3.2 0 6.4-1.2 8.9-3.7 2.4-2.3 3.7-5.4 3.7-8.7 0-3.3-1.3-6.4-3.8-8.9l-74.4-60.6 74.7-61c2-2.2 3.3-5.2 3.3-8.5z" fill="#F87500" p-id="25638"></path></svg>