<?xml version="1.0" standalone="no"?><!DOCTYPE svg PUBLIC "-//W3C//DTD SVG 1.1//EN" "http://www.w3.org/Graphics/SVG/1.1/DTD/svg11.dtd"><svg t="1777949508558" class="icon" viewBox="0 0 1024 1024" version="1.1" xmlns="http://www.w3.org/2000/svg" p-id="4491" xmlns:xlink="http://www.w3.org/1999/xlink" width="200" height="200"><path d="M172.8 958.08H32c-17.92 0-32-14.08-32-32V96c0-17.92 14.08-32 32-32h140.8c17.92 0 32 14.08 32 32v830.08c0 17.92-14.72 32-32 32z m-108.8-64h76.8V128H64v766.08zM402.56 958.08h-140.8c-17.92 0-32-14.08-32-32V96c0-17.92 14.08-32 32-32h140.8c17.92 0 32 14.08 32 32v830.08c0 17.92-14.08 32-32 32z m-108.8-64h76.8V128h-76.8v766.08zM870.4 960a33.152 33.152 0 0 1-28.16-17.28L460.16 224a32.64 32.64 0 0 1 11.52-42.24l121.6-76.8c7.68-4.48 16.64-5.76 25.6-3.84 8.32 3.2 15.36 8.32 19.84 16.64l381.44 718.72a32 32 0 0 1-11.52 42.24l-121.6 76.8c-5.12 2.56-10.88 4.48-16.64 4.48zM530.56 220.16l351.36 662.4 67.2-42.24L598.4 177.92l-67.84 42.24z" fill="#1296db" p-id="4492"></path></svg>