<?xml version="1.0" standalone="no"?><!DOCTYPE svg PUBLIC "-//W3C//DTD SVG 1.1//EN" "http://www.w3.org/Graphics/SVG/1.1/DTD/svg11.dtd"><svg t="1781074444529" class="icon" viewBox="0 0 1024 1024" version="1.1" xmlns="http://www.w3.org/2000/svg" p-id="5071" xmlns:xlink="http://www.w3.org/1999/xlink" width="200" height="200"><path d="M513.404 0C298.736 0 124.701 171.931 124.701 383.985c0 212.052 388.704 640.015 388.704 640.015s388.704-427.963 388.704-640.015C902.109 171.931 728.075 0 513.404 0zM513.404 639.982c-143.106 0-259.141-114.596-259.141-255.997 0-141.371 116.035-256 259.141-256 143.109 0 259.142 114.63 259.142 256C772.546 525.387 656.514 639.982 513.404 639.982zM513.404 256c-71.561 0-129.563 57.3-129.563 127.985C383.842 454.67 441.844 512 513.404 512c71.562 0 129.563-57.329 129.563-128.015C642.968 313.301 584.966 256 513.404 256z" fill="#E83B4F" p-id="5072"></path></svg>