<?xml version="1.0" standalone="no"?><!DOCTYPE svg PUBLIC "-//W3C//DTD SVG 1.1//EN" "http://www.w3.org/Graphics/SVG/1.1/DTD/svg11.dtd"><svg t="1756696883778" class="icon" viewBox="0 0 1024 1024" version="1.1" xmlns="http://www.w3.org/2000/svg" p-id="18565" width="400" height="400" xmlns:xlink="http://www.w3.org/1999/xlink"><path d="M529.664 213.333333H896a42.666667 42.666667 0 0 1 42.666667 42.666667v597.333333a42.666667 42.666667 0 0 1-42.666667 42.666667H128a42.666667 42.666667 0 0 1-42.666667-42.666667V170.666667a42.666667 42.666667 0 0 1 42.666667-42.666667h316.330667l85.333333 85.333333zM170.666667 213.333333v597.333334h682.666666V298.666667h-358.997333l-85.333333-85.333334H170.666667z m170.666666 554.666667a170.666667 170.666667 0 1 1 341.333334 0H341.333333z m170.666667-213.333333a106.666667 106.666667 0 1 1 0-213.333334 106.666667 106.666667 0 0 1 0 213.333334z" fill="#219F68" p-id="18566"></path></svg>