<?xml version="1.0" standalone="no"?><!DOCTYPE svg PUBLIC "-//W3C//DTD SVG 1.1//EN" "http://www.w3.org/Graphics/SVG/1.1/DTD/svg11.dtd"><svg t="1756702806726" class="icon" viewBox="0 0 1024 1024" version="1.1" xmlns="http://www.w3.org/2000/svg" p-id="4448" width="500" height="500" xmlns:xlink="http://www.w3.org/1999/xlink"><path d="M426.666667 554.666667H256a85.333333 85.333333 0 0 0-85.333333 85.333333v170.666667a85.333333 85.333333 0 0 0 85.333333 85.333333h170.666667a85.333333 85.333333 0 0 0 85.333333-85.333333v-170.666667a85.333333 85.333333 0 0 0-85.333333-85.333333z m-170.666667 256v-170.666667h170.666667v170.666667H256zM810.666667 554.666667h-170.666667a85.333333 85.333333 0 0 0-85.333333 85.333333v170.666667a85.333333 85.333333 0 0 0 85.333333 85.333333h170.666667a85.333333 85.333333 0 0 0 85.333333-85.333333v-170.666667a85.333333 85.333333 0 0 0-85.333333-85.333333z m-170.666667 256v-170.666667h170.666667v170.666667h-170.666667zM426.666667 170.666667H256a85.333333 85.333333 0 0 0-85.333333 85.333333v170.666667a85.333333 85.333333 0 0 0 85.333333 85.333333h170.666667a85.333333 85.333333 0 0 0 85.333333-85.333333V256a85.333333 85.333333 0 0 0-85.333333-85.333333z m-170.666667 256V256h170.666667v170.666667H256zM862.250667 204.544c-17.493333-17.450667-37.546667-30.762667-60.288-39.978667a180.650667 180.650667 0 0 0-68.522667-13.354666c-23.765333 0-46.592 4.437333-68.522667 13.354666a182.144 182.144 0 0 0-60.288 297.557334 182.144 182.144 0 1 0 257.621334-257.578667z m-128.810667 32c26.752 0 49.536 9.429333 68.437333 28.330667a96.810667 96.810667 0 1 1-136.874666 136.917333 96.810667 96.810667 0 0 1 0-136.917333 93.269333 93.269333 0 0 1 68.437333-28.330667z" fill="#FCB056" p-id="4449"></path></svg>