<?xml version="1.0" standalone="no"?><!DOCTYPE svg PUBLIC "-//W3C//DTD SVG 1.1//EN" "http://www.w3.org/Graphics/SVG/1.1/DTD/svg11.dtd"><svg t="1781662088129" class="icon" viewBox="0 0 1024 1024" version="1.1" xmlns="http://www.w3.org/2000/svg" p-id="2702" width="500" height="500" xmlns:xlink="http://www.w3.org/1999/xlink"><path d="M228.6 896h409c44 0 80-36 80-80V247.7c0-44-36-80-80-80h-409c-44 0-80 36-80 80V816c0 44 36 80 80 80z" fill="#FFECB6" p-id="2703"></path><path d="M253.7 875.6h-8.6c-40.8 0-73.9-34.3-73.9-76.5V204.5c0-42.2 33.2-76.5 73.9-76.5h317.2c5.3 0 9.6 4.3 9.6 9.6s-4.3 9.6-9.6 9.6H245.1c-30.1 0-54.6 25.6-54.6 57.2v594.7c0 31.5 24.5 57.2 54.6 57.2h8.6c5.3 0 9.6 4.3 9.6 9.6s-4.3 9.7-9.6 9.7zM675.8 875.6H416.5c-5.3 0-9.6-4.3-9.6-9.6s4.3-9.6 9.6-9.6h259.3c30.1 0 54.6-25.6 54.6-57.2V204.5c0-31.5-24.5-57.2-54.6-57.2h-49.3c-5.3 0-9.6-4.3-9.6-9.6s4.3-9.6 9.6-9.6h49.3c40.8 0 73.9 34.3 73.9 76.5v594.7c0 42-33.1 76.3-73.9 76.3zM345.8 875.8h-34.3c-5.3 0-9.6-4.3-9.6-9.6s4.3-9.6 9.6-9.6h34.3c5.3 0 9.6 4.3 9.6 9.6s-4.3 9.6-9.6 9.6z" fill="" p-id="2704"></path><path d="M311.2 368.8h298.6c27.5 0 50-22.5 50-50v-22.1c0-27.5-22.5-50-50-50H311.2c-27.5 0-50 22.5-50 50v22.1c0 27.5 22.5 50 50 50z" fill="#FFDB69" p-id="2705"></path><path d="M281.2 488.5h358.6c11 0 20-9 20-20s-9-20-20-20H281.2c-11 0-20 9-20 20s9 20 20 20zM281.2 594.6h358.6c11 0 20-9 20-20s-9-20-20-20H281.2c-11 0-20 9-20 20s9 20 20 20zM621.2 799.6h-51.4c-23 0-41.8-18.7-41.8-41.8v-51.4c0-23 18.7-41.8 41.8-41.8h51.4c23 0 41.8 18.7 41.8 41.8v51.4c0 23-18.8 41.8-41.8 41.8z m-51.5-115.8c-12.4 0-22.5 10.1-22.5 22.5v51.4c0 12.4 10.1 22.5 22.5 22.5h51.4c12.4 0 22.5-10.1 22.5-22.5v-51.4c0-12.4-10.1-22.5-22.5-22.5h-51.4z" fill="#F4BA64" p-id="2706"></path><path d="M827.9 489.5L609.4 708.1l-0.1 0.1 0.1 0.1-17.3 56.5 56.5-17.3 0.1 0.1L867.3 529c10.9-10.9 10.9-28.5 0-39.3-10.9-11-28.5-11-39.4-0.2z" fill="#F4F4F4" p-id="2707"></path><path d="M827.9 470.2L609.4 688.8l-0.1 0.1 0.1 0.1-17.3 56.5 56.5-17.3 0.1 0.1 218.6-218.6c10.9-10.9 10.9-28.5 0-39.3-10.9-11-28.5-11-39.4-0.2z" fill="#F7931E" p-id="2708"></path></svg>