<?xml version="1.0" standalone="no"?><!DOCTYPE svg PUBLIC "-//W3C//DTD SVG 1.1//EN" "http://www.w3.org/Graphics/SVG/1.1/DTD/svg11.dtd"><svg t="1756696627318" class="icon" viewBox="0 0 1024 1024" version="1.1" xmlns="http://www.w3.org/2000/svg" p-id="8459" width="256" height="256" xmlns:xlink="http://www.w3.org/1999/xlink"><path d="M962 834.4385C962 904.598 904.598 962 834.4385 962H194.0615C123.902 962 66.5 904.598 66.5 834.4385V189.5615C66.5 119.402 123.902 62 194.0615 62h640.3815C904.598 62 962 119.402 962 189.5615v644.877z" fill="#FB9654" p-id="8460"></path><path d="M835.09296875 473.09046875c-34.003125-40.16671875-72.3346875-83.70421875-112.91484375-129.7940625-40.96828125-46.54125-83.3371875-94.651875-122.01890625-140.26921875-49.0809375-48.6253125-101.2078125-49.33828125-146.188125-1.7803125-37.16296875 41.71078125-79.5234375 86.265-120.4875 129.35953125C292.2621875 373.979375 249.6359375 418.8078125 211.945625 461.10921875c-26.05078125 29.6409375-21.16125 53.49375-15.92578125 65.0615625 8.23921875 18.1996875 26.9409375 29.075625 40.2721875 29.075625h58.1090625v197.4628125c0 33.20578125 23.6671875 68.75296875 58.9021875 68.75296875h112.6321875v-196.3490625h123.1959375v196.3490625h113.4590625c21.88265625 0 58.91484375-17.70609375 58.91484375-84.11765625V555.2421875h42.54609375c16.6725 0 31.15125-8.82984375 38.72390625-23.6334375 8.994375-17.53734375 6.3534375-39.12890625-7.68234375-58.51828125z" fill="#ffffff" p-id="8461"></path><path d="M496.25 662.75h67.5v171h-67.5z" fill="#FB9654" p-id="8462"></path></svg>